<svg id="visual" viewBox="0 0 960 540" width="960" height="540" xmlns="http://www.w3.org/2000/svg" xmlns:xlink="http://www.w3.org/1999/xlink" version="1.1"><rect x="0" y="0" width="960" height="540" fill="#001220"></rect><path d="M0 356L22.8 364C45.7 372 91.3 388 137 387.3C182.7 386.7 228.3 369.3 274 355.8C319.7 342.3 365.3 332.7 411.2 336.8C457 341 503 359 548.8 371.8C594.7 384.7 640.3 392.3 686 393.3C731.7 394.3 777.3 388.7 823 379.5C868.7 370.3 914.3 357.7 937.2 351.3L960 345L960 541L937.2 541C914.3 541 868.7 541 823 541C777.3 541 731.7 541 686 541C640.3 541 594.7 541 548.8 541C503 541 457 541 411.2 541C365.3 541 319.7 541 274 541C228.3 541 182.7 541 137 541C91.3 541 45.7 541 22.8 541L0 541Z" fill="#fa7268"></path><path d="M0 366L22.8 376C45.7 386 91.3 406 137 408.8C182.7 411.7 228.3 397.3 274 392.8C319.7 388.3 365.3 393.7 411.2 399.3C457 405 503 411 548.8 405C594.7 399 640.3 381 686 378.3C731.7 375.7 777.3 388.3 823 395C868.7 401.7 914.3 402.3 937.2 402.7L960 403L960 541L937.2 541C914.3 541 868.7 541 823 541C777.3 541 731.7 541 686 541C640.3 541 594.7 541 548.8 541C503 541 457 541 411.2 541C365.3 541 319.7 541 274 541C228.3 541 182.7 541 137 541C91.3 541 45.7 541 22.8 541L0 541Z" fill="#ef5f67"></path><path d="M0 430L22.8 429.3C45.7 428.7 91.3 427.3 137 426.3C182.7 425.3 228.3 424.7 274 429.7C319.7 434.7 365.3 445.3 411.2 440.5C457 435.7 503 415.3 548.8 407.2C594.7 399 640.3 403 686 406.2C731.7 409.3 777.3 411.7 823 420.2C868.7 428.7 914.3 443.3 937.2 450.7L960 458L960 541L937.2 541C914.3 541 868.7 541 823 541C777.3 541 731.7 541 686 541C640.3 541 594.7 541 548.8 541C503 541 457 541 411.2 541C365.3 541 319.7 541 274 541C228.3 541 182.7 541 137 541C91.3 541 45.7 541 22.8 541L0 541Z" fill="#e34c67"></path><path d="M0 473L22.8 468.2C45.7 463.3 91.3 453.7 137 451.8C182.7 450 228.3 456 274 458.7C319.7 461.3 365.3 460.7 411.2 463.2C457 465.7 503 471.3 548.8 469.8C594.7 468.3 640.3 459.7 686 453.7C731.7 447.7 777.3 444.3 823 442.2C868.7 440 914.3 439 937.2 438.5L960 438L960 541L937.2 541C914.3 541 868.7 541 823 541C777.3 541 731.7 541 686 541C640.3 541 594.7 541 548.8 541C503 541 457 541 411.2 541C365.3 541 319.7 541 274 541C228.3 541 182.7 541 137 541C91.3 541 45.7 541 22.8 541L0 541Z" fill="#d53867"></path><path d="M0 510L22.8 506C45.7 502 91.3 494 137 492.3C182.7 490.7 228.3 495.3 274 496C319.7 496.7 365.3 493.3 411.2 489.5C457 485.7 503 481.3 548.8 485C594.7 488.7 640.3 500.3 686 502.8C731.7 505.3 777.3 498.7 823 498.2C868.7 497.7 914.3 503.3 937.2 506.2L960 509L960 541L937.2 541C914.3 541 868.7 541 823 541C777.3 541 731.7 541 686 541C640.3 541 594.7 541 548.8 541C503 541 457 541 411.2 541C365.3 541 319.7 541 274 541C228.3 541 182.7 541 137 541C91.3 541 45.7 541 22.8 541L0 541Z" fill="#c62368"></path></svg>